<?xml version="1.0" encoding="UTF-8"?><svg id="Layer_1" xmlns="http://www.w3.org/2000/svg" viewBox="0 0 2418.09 1080"><defs><style>.cls-1{fill:#fff;}.cls-2{fill:#064d82;}.cls-3{fill:#f5d149;}</style></defs><g><path class="cls-2" d="M1209.86,703.11c-2.22-2.22-3.33-4.91-3.33-8.09V433h-87.98c-3.17,0-5.87-1.11-8.09-3.33-2.22-2.21-3.33-5.07-3.33-8.56v-35.66c0-3.49,1.02-6.34,3.09-8.56,2.06-2.21,4.83-3.33,8.32-3.33h243c3.48,0,6.34,1.11,8.56,3.33,2.21,2.22,3.33,5.07,3.33,8.56v35.66c0,3.49-1.11,6.35-3.33,8.56-2.22,2.22-5.08,3.33-8.56,3.33h-87.5v262.03c0,3.17-1.03,5.87-3.09,8.09-2.07,2.22-4.84,3.33-8.32,3.33h-44.7c-3.17,0-5.87-1.11-8.09-3.33Z"/><path class="cls-2" d="M1408.64,682.66c-16.81-19.02-25.21-45.18-25.21-78.46v-133.63c0-3.49,1.11-6.26,3.33-8.32,2.21-2.06,4.91-3.09,8.08-3.09h42.8c3.16,0,5.86,1.11,8.09,3.33,2.21,2.22,3.33,4.92,3.33,8.09v130.77c0,39,16.96,58.49,50.88,58.49,16.48,0,29.56-5.23,39.23-15.69,9.67-10.46,14.5-24.73,14.5-42.8v-130.77c0-3.49,1.11-6.26,3.33-8.32,2.22-2.06,4.91-3.09,8.09-3.09h42.32c3.49,0,6.26,1.03,8.32,3.09,2.06,2.07,3.09,4.84,3.09,8.32v224.46c0,3.17-1.03,5.87-3.09,8.09-2.07,2.22-4.84,3.33-8.32,3.33h-39.47c-3.17,0-5.87-1.11-8.09-3.33-2.22-2.22-3.33-4.91-3.33-8.09v-19.5c-17.44,23.78-43.75,35.66-78.94,35.66-29.17,0-52.15-9.51-68.95-28.53Z"/><path class="cls-2" d="M1743.42,677.43v17.59c0,3.17-1.11,5.87-3.33,8.09-2.22,2.22-5.07,3.33-8.56,3.33h-38.04c-3.17,0-5.87-1.11-8.08-3.33-2.22-2.22-3.33-4.91-3.33-8.09V380.22c0-3.49,1.11-6.26,3.33-8.32,2.22-2.06,4.91-3.09,8.08-3.09h41.37c3.48,0,6.26,1.03,8.32,3.09,2.06,2.07,3.09,4.84,3.09,8.32v105.57c17.75-20.92,42-31.39,72.76-31.39s56.66,10.39,73.95,31.15c17.28,20.77,26.39,47.96,27.34,81.55,.31,3.8,.48,9.03,.48,15.69s-.16,11.58-.48,15.69c-1.27,34.24-10.46,61.58-27.58,82.03-17.12,20.45-41.69,30.67-73.71,30.67s-58.18-11.25-75.61-33.76Zm111.75-80.37c.31-3.16,.47-7.92,.47-14.27s-.16-11.09-.47-14.27c-2.22-41.85-20.29-62.77-54.21-62.77-17.44,0-30.75,5.55-39.95,16.64-9.2,11.1-14.11,24.57-14.74,40.42-.32,3.8-.48,9.99-.48,18.55s.16,14.27,.48,18.07c.63,16.81,5.39,31.07,14.27,42.8,8.87,11.73,22.35,17.59,40.42,17.59,33.92,0,51.99-20.92,54.21-62.77Z"/><path class="cls-2" d="M2000.92,701.45c-13.48-6.49-24.1-15.29-31.86-26.39-7.77-11.09-11.65-23.3-11.65-36.62,0-21.56,8.72-39,26.15-52.31,17.43-13.32,41.37-22.35,71.81-27.11l65.15-9.51v-9.98c0-13.63-3.49-23.93-10.46-30.91-6.98-6.97-18.07-10.46-33.29-10.46-10.46,0-18.87,1.9-25.2,5.71-6.35,3.8-11.5,7.69-15.46,11.65-3.97,3.97-6.58,6.58-7.85,7.85-1.27,3.8-3.65,5.71-7.13,5.71h-37.09c-2.85,0-5.31-.95-7.37-2.85-2.07-1.9-3.09-4.44-3.09-7.61,.31-7.92,4.2-16.88,11.65-26.87,7.44-9.99,18.94-18.7,34.48-26.15,15.53-7.45,34.72-11.17,57.54-11.17,37.4,0,64.67,8.4,81.79,25.2,17.12,16.81,25.68,38.84,25.68,66.1v149.32c0,3.17-1.03,5.87-3.09,8.09-2.07,2.22-4.84,3.33-8.32,3.33h-39.47c-3.17,0-5.87-1.11-8.08-3.33-2.22-2.22-3.33-4.91-3.33-8.09v-18.55c-6.98,10.15-16.81,18.47-29.48,24.96-12.68,6.49-28.53,9.75-47.55,9.75-16.17,0-30.99-3.25-44.46-9.75Zm103.43-53.02c11.09-11.41,16.65-27.89,16.65-49.46v-9.51l-47.55,7.61c-36.46,5.71-54.69,17.92-54.69,36.62,0,10.15,4.2,18,12.6,23.54,8.4,5.55,18.46,8.32,30.2,8.32,17.43,0,31.7-5.71,42.8-17.12Z"/></g><g><g><g><path class="cls-2" d="M540,985.64c-40.94,0-78.97-22.09-99.26-57.66L62.81,265.22c-20.09-35.24-19.92-78.92,.46-113.99,20.38-35.08,58.23-56.87,98.8-56.87H917.93c40.57,0,78.42,21.79,98.8,56.87,20.38,35.07,20.55,78.75,.46,113.99l-377.93,662.76c-20.28,35.57-58.31,57.66-99.26,57.66Z"/><path class="cls-2" d="M917.93,122.08c30.83,0,59.34,16.41,74.83,43.07,15.49,26.66,15.62,59.55,.35,86.34l-377.93,662.76c-15.4,27-44.09,43.67-75.17,43.67h0c-31.08,0-59.78-16.67-75.17-43.67L86.89,251.49c-15.27-26.79-15.14-59.68,.35-86.34,15.49-26.66,43.99-43.07,74.83-43.07H917.93m0-55.44H162.07c-24.82,0-49.31,6.54-70.83,18.93-21.51,12.38-39.47,30.27-51.94,51.73-12.47,21.46-19.11,45.93-19.21,70.75-.1,24.82,6.35,49.34,18.64,70.9L416.66,941.71c12.4,21.74,30.38,39.87,52.02,52.44,21.64,12.57,46.3,19.21,71.32,19.21s49.68-6.64,71.32-19.21c21.64-12.57,39.62-30.7,52.02-52.44l377.93-662.76c12.3-21.56,18.74-46.08,18.64-70.9-.1-24.82-6.74-49.29-19.21-70.75-12.47-21.46-30.43-39.35-51.94-51.74-21.51-12.38-46-18.93-70.83-18.93h0Z"/></g><g><path class="cls-3" d="M540,972.88c-36.37,0-70.16-19.63-88.17-51.22L73.89,258.9c-17.85-31.3-17.7-70.11,.41-101.26,18.1-31.16,51.73-50.52,87.77-50.52H917.93c36.04,0,69.67,19.36,87.77,50.52,18.1,31.16,18.26,69.96,.41,101.26l-377.93,662.76c-18.02,31.59-51.8,51.22-88.17,51.22Z"/><path class="cls-1" d="M917.93,122.08c30.83,0,59.34,16.41,74.83,43.07,15.49,26.66,15.62,59.55,.35,86.34l-377.93,662.76c-15.4,27-44.09,43.67-75.17,43.67h0c-31.08,0-59.78-16.67-75.17-43.67L86.89,251.49c-15.27-26.79-15.14-59.68,.35-86.34,15.49-26.66,43.99-43.07,74.83-43.07H917.93m0-29.92H162.07c-20.36,0-40.45,5.37-58.1,15.53-17.65,10.16-32.38,24.83-42.61,42.44-10.23,17.61-15.68,37.67-15.76,58.04-.08,20.36,5.21,40.47,15.29,58.16L438.83,929.07c10.17,17.83,24.92,32.7,42.67,43.01,17.75,10.31,37.98,15.76,58.5,15.76,41.73,0,80.5-22.52,101.17-58.77L1019.1,266.31c10.09-17.69,15.37-37.8,15.29-58.16-.08-20.36-5.53-40.43-15.76-58.03-10.23-17.61-24.96-32.28-42.61-42.44-17.65-10.16-37.74-15.53-58.1-15.53h0Z"/></g></g><g><g><g><rect class="cls-2" x="267.94" y="425.98" width="544.11" height="11.2"/><rect class="cls-2" x="267.94" y="498.78" width="544.11" height="11.2"/></g><g><rect class="cls-2" x="281.03" y="461.33" width="32.09" height="10.3"/><rect class="cls-2" x="329.88" y="461.33" width="32.09" height="10.3"/><rect class="cls-2" x="718.03" y="461.33" width="32.09" height="10.3"/><rect class="cls-2" x="766.88" y="461.33" width="32.09" height="10.3"/></g></g><path class="cls-2" d="M668.19,462.69c-19.64-105.43-105.51-199.24-189.69-230.65-9.46-3.51-19.39,3.99-18.86,14.04,.58,11.4,1.23,26.77,1.48,44.3l.1,8.44,14.88,3.31-14.86,12.46c0,1.36-.02,2.72-.03,4.09h22.54l-22.72,11.15c-.33,14.64-1.02,29.7-2.27,44.38l-4.87,38.73c-2.98,16.75-7.05,31.67-12.58,43.17-.04,0-.08,0-.13,.02-18.08,2.53-36.09,5.83-53.8,10.44-.31,.08-.62,.17-.93,.25-1.66,.45-2.8,1.39-3.48,2.55h314.08v-.07c-9.55-2.51-19.18-4.69-28.85-6.62Z"/></g></g></svg>