<?xml version="1.0" encoding="UTF-8"?>
<svg id="Camada_1" data-name="Camada 1" xmlns="http://www.w3.org/2000/svg" xmlns:xlink="http://www.w3.org/1999/xlink" viewBox="0 0 1080 1080">
  <defs>
    <style>
      .cls-1, .cls-2 {
        fill: #fff;
      }

      .cls-3 {
        fill: #3d3d3d;
      }

      .cls-2 {
        font-family: Righteous-Regular, Righteous;
        font-size: 181px;
      }

      .cls-4 {
        letter-spacing: 0em;
      }

      .cls-5 {
        fill: url(#Gradiente_sem_nome_1178);
      }
    </style>
    <linearGradient id="Gradiente_sem_nome_1178" data-name="Gradiente sem nome 1178" x1="540" y1="1080" x2="540" y2="0" gradientUnits="userSpaceOnUse">
      <stop offset="0" stop-color="#f7931e"/>
      <stop offset="1" stop-color="#ebab00"/>
    </linearGradient>
  </defs>
  <rect class="cls-5" width="1080" height="1080" rx="160.06" ry="160.06"/>
  <path class="cls-1" d="M107.55,529.09c.99-4.08,2.01-8.15,2.96-12.23,11.41-49.05,40.67-83.55,85.86-104.84,5.5-2.59,7.12-5.92,7.24-11.67,1.08-52.83,24.07-93.67,69.59-120.29,39.95-23.37,82.11-24.44,124.63-6.33,10.87,4.63,10.74,4.96,14.02-6.49,23.42-81.95,96.48-143.33,181.07-151.12,65.56-6.04,122.93,13.82,169.98,59.7,40.05,39.06,61.09,87.55,62.88,143.78,.24,7.46,2.58,10.64,9.9,12.68,86.09,24.02,143.3,107.15,135.05,195.66-8.15,87.42-76.24,157.3-163.87,167.89-10.01,1.21-20.16,1.74-30.25,1.75-170.56,.1-341.12,.04-511.68,.1-43.06,.02-81.42-12.33-112.76-42.8-23.03-22.4-37.29-49.66-42.96-81.34-.44-2.47-1.11-4.89-1.67-7.34,0-12.36,0-24.73,0-37.09Z"/>
  <path class="cls-3" d="M726.65,724.75h-114.33c-.16-.21-.28-.51-.49-.62-6.88-3.49-9.88-8.65-8.47-14.61,1.53-6.5,6.58-9.98,14.53-9.99,3.99,0,7.99,0,11.85,0v-22.7c-9.6,0-18.96,.08-28.31-.02-11.92-.13-21.5-7.73-24.49-19.24-.27-1.03-.69-2.03-1.08-3.17-18.47,3.05-36.72,2.92-54.96,.03-.35,.99-.63,1.63-.8,2.3-3.37,12.89-12.57,20.04-25.91,20.1-5.04,.02-10.09,0-15.13,0-4,0-8,0-11.96,0v22.12c.32,.27,.42,.43,.53,.44,4.48,.06,8.96,.04,13.44,.15,6.22,.16,11.03,4.07,12.43,9.97,1.29,5.43-1.51,11.06-6.92,13.96-.7,.38-1.36,.84-2.04,1.26h-114.33c-.16-.21-.28-.51-.49-.62-6.87-3.49-9.87-8.63-8.48-14.58,1.52-6.5,6.57-10,14.49-10.01,3.99,0,7.98,0,11.93,0v-22.7c-9.82,0-19.44,.09-29.05-.03-9.38-.11-16.74-4.17-21.63-12.17-1.65-2.69-2.52-5.86-3.75-8.81,0-36.98,0-73.97,0-110.95,.26-.64,.58-1.26,.78-1.92,3.73-12.25,12.73-19.01,25.48-19.09,4.76-.03,9.53,0,14.29,0,3.54,0,7.09,0,10.85,0-.27-1.65-.41-2.61-.59-3.57-3.08-16.5-3.95-33.12-1.83-49.76,6.3-49.45,29.72-88.84,70.2-117.98,2.09-1.5,2.8-3.02,2.76-5.51-.14-8.96-.11-17.93-.04-26.9,.12-14.82,10.96-25.71,25.82-25.73,44.98-.06,89.95-.06,134.93,0,14.87,.02,25.72,10.87,25.86,25.7,.08,8.26,.23,16.54-.07,24.79-.15,4.03,1.15,6.38,4.46,8.89,49.41,37.39,72.61,87.03,68.9,149-.42,6.93-1.61,13.81-2.48,21.08,8.76,0,17.43-.11,26.09,.02,13.88,.21,24.9,11.01,24.96,24.86,.14,34.46,.15,68.92-.01,103.38-.07,13.62-11.09,24.4-24.73,24.66-8.54,.16-17.09,.04-25.64,.04-1.33,0-2.67,0-3.99,0v22.7c4.79,0,9.38-.08,13.97,.02,6.23,.14,11.03,4.06,12.43,9.96,1.29,5.43-1.51,11.06-6.92,13.96-.7,.38-1.36,.84-2.04,1.26Zm-205.97-96.11c18.71,3.73,36.9,3.69,55.49,.03v-4.65c0-24.38-.02-48.75,0-73.13,.01-16.49,10.55-27.02,27.07-27.03,26.06-.02,52.12,0,78.18,0h4.48c15.78-41.78-8.58-119.61-44.16-140.76,0,1.55,0,2.91,0,4.27,0,11.77,.08,23.54-.03,35.3-.13,14.57-11.02,25.38-25.62,25.52-8.13,.08-16.25,0-24.38,.03-1.2,0-2.4,.15-3.56,.23v21.61c4.37,0,8.54-.02,12.71,0,8.2,.05,13.89,5.15,13.96,12.49,.07,7.37-5.62,12.7-13.73,12.71-35.17,.03-70.34,.03-105.51,0-7.85,0-13.48-5.27-13.56-12.46-.08-7.36,5.61-12.67,13.71-12.73,4.29-.03,8.59,0,12.87,0v-21.85c-8.84,0-17.38,0-25.91,0-17.14-.02-27.56-10.35-27.58-27.37-.01-8.97,0-17.93,0-26.9v-11.04c-36.96,25.21-60.87,102.16-44.02,140.96,1.43,0,2.97,0,4.5,0,26.06,0,52.12-.02,78.18,0,16.25,.02,26.89,10.59,26.91,26.77,.03,24.38,0,48.75,0,73.13,0,1.52,0,3.05,0,4.87Zm95.67-308.71h-135.82v102.82h135.82v-102.82Zm-257.73,331.4h136.51v-102.04h-136.51v102.04Zm242.96,0h136.51v-102.04h-136.51v102.04Zm-160.02,25.86h-28.21v22.02h28.21v-22.02Zm241.91,22.16v-22.18h-28.06v22.18h28.06Zm-120.94-250.84h-28.06v21.33h28.06v-21.33Z"/>
  <text class="cls-2" transform="translate(117.06 899.21)"><tspan x="0" y="0">Sa</tspan><tspan class="cls-4" x="220.59" y="0">f</tspan><tspan x="290.5" y="0">e Desk</tspan></text>
</svg>